PathFileType	4	(X/Y/Z)	..\data\2014031\dynamic\2014031_C4_02.trc
DataRate	CameraRate	NumFrames	NumMarkers	Units	OrigDataRate	OrigDataStartFrame	OrigNumFrames
100.000000	100.000000	4	52	mm	100.000000	0	170
Frame#	Time	L_IAS			L_IPS			R_IPS			R_IAS			L_FTC			L_FLE			L_FME			L_FAX			L_TTC			L_FAL			L_TAM			L_FCC			L_FM1			L_FM2			L_FM5			R_FTC			R_FLE			R_FME			R_FAX			R_TTC			R_FAL			R_TAM			R_FCC			R_FM1			R_FM2			R_FM5			CV7			TV10			SXS			SJN			L_SIA			L_SRS			L_SAA			L_SAE			L_HLE			L_HME			L_UOA			L_RSP			L_UHE			L_HM2			L_HM5			R_SIA			R_SRS			R_SAA			R_SAE			R_HLE			R_HME			R_UOA			R_RSP			R_UHE			R_HM2			R_HM5			
		X1	Y1	Z1	X2	Y2	Z2	X3	Y3	Z3	X4	Y4	Z4	X5	Y5	Z5	X6	Y6	Z6	X7	Y7	Z7	X8	Y8	Z8	X9	Y9	Z9	X10	Y10	Z10	X11	Y11	Z11	X12	Y12	Z12	X13	Y13	Z13	X14	Y14	Z14	X15	Y15	Z15	X16	Y16	Z16	X17	Y17	Z17	X18	Y18	Z18	X19	Y19	Z19	X20	Y20	Z20	X21	Y21	Z21	X22	Y22	Z22	X23	Y23	Z23	X24	Y24	Z24	X25	Y25	Z25	X26	Y26	Z26	X27	Y27	Z27	X28	Y28	Z28	X29	Y29	Z29	X30	Y30	Z30	X31	Y31	Z31	X32	Y32	Z32	X33	Y33	Z33	X34	Y34	Z34	X35	Y35	Z35	X36	Y36	Z36	X37	Y37	Z37	X38	Y38	Z38	X39	Y39	Z39	X40	Y40	Z40	X41	Y41	Z41	X42	Y42	Z42	X43	Y43	Z43	X44	Y44	Z44	X45	Y45	Z45	X46	Y46	Z46	X47	Y47	Z47	X48	Y48	Z48	X49	Y49	Z49	X50	Y50	Z50	X51	Y51	Z51	X52	Y52	Z52	

1	0	-220.7485961914063	939.2891845703127	-324.2479248046876	-414.7218627929689	968.4504394531252	-268.8060302734376	-416.7810363769532	971.572692871094	-163.5712280273438	-223.8108520507813	939.8977050781252	-98.13916015625003	-310.5482788085938	861.3330688476565	-404.2979431152345	-155.3194122314453	472.3315734863282	-366.6651916503907	-153.7648468017578	463.0613098144532	-234.7954101562501	-145.44580078125	412.1016235351564	-367.3015136718751	-84.38097381591798	432.9603881835939	-309.0252685546876	-68.42932128906251	71.88636779785158	-333.8987731933594	-40.19775772094727	99.61598968505862	-247.1459045410157	-89.61052703857423	11.78544139862061	-284.7426452636719	90.05529022216798	76.80509185791017	-255.0391693115235	87.09018707275392	90.34246063232423	-309.6759338378907	55.58263015747072	57.67456054687501	-353.8356323242188	-315.8507995605469	856.1866455078127	-33.03076934814454	-381.4881896972657	455.5791625976564	-83.78096771240236	-388.4316406250001	449.6546325683595	-212.2573547363282	-404.1665039062501	395.459686279297	-84.54512023925783	-350.7020263671876	384.364471435547	-144.6690979003907	-527.3286132812501	73.75347900390626	-131.3102569580078	-493.5436096191407	85.75331878662111	-218.4058380126954	-571.0362548828126	24.99222946166993	-182.925048828125	-379.6874084472657	14.31957435607911	-188.5831298828125	-372.8666687011719	29.56647300720216	-129.495590209961	-423.3102111816407	15.20269107818604	-81.90014648437501	-334.9628906250001	1492.370727539063	-199.3747100830079	-422.6783447265626	1214.922119140625	-204.9262237548829	-202.249008178711	1203.885864257813	-216.7319030761719	-226.9658203125001	1398.04638671875	-210.8291320800782	-434.4707336425782	1247.686401367188	-307.7534790039063	-381.9139404296876	1401.712280273438	-337.0467224121094	-337.6978759765626	1390.218994140625	-400.0722961425782	-290.6741638183594	1390.135864257813	-404.9925231933595	-381.0850524902344	1067.945678710938	-475.0439758300782	-413.5574645996095	1051.53173828125	-397.7449340820314	-420.9453735351564	1049.311157226563	-447.5186767578126	-315.3486633300782	807.2651367187502	-437.121551513672	-351.6950073242188	815.323181152344	-509.7333068847657	-302.0813903808594	718.5040283203126	-448.6204528808595	-374.1639099121094	741.2730712890626	-516.2552490234376	-420.5191955566407	1243.823486328125	-98.51689910888675	-370.3108215332032	1399.494873046875	-75.07136535644533	-310.8667907714844	1395.392211914063	-17.56231689453125	-266.3919372558594	1384.191528320313	-6.837547302246096	-267.9728698730469	1047.039794921875	61.60898208618165	-307.3023071289063	1027.3623046875	-12.88872528076172	-307.2157897949219	1011.596130371094	29.08999824523926	-88.6802444458008	872.2916259765627	-5.840540885925294	-125.3478775024414	837.7825927734377	55.54821777343751	-26.59441566467286	801.0457763671877	-15.41402530670166	-92.79549407958986	758.6268920898439	48.01113510131837	
2	0.01	-207.8142700195313	937.302185058594	-324.2681274414063	-402.3769531250001	966.2940673828127	-270.3524475097657	-405.2817993164064	969.383239746094	-165.2135772705078	-212.5462646484376	938.297302246094	-97.76911163330081	-297.4744262695313	859.3695068359377	-404.9010009765626	-142.6193237304688	470.6412658691407	-366.7583618164063	-141.4892120361328	460.9176635742189	-234.7510070800782	-131.9260559082032	410.414520263672	-367.3992004394532	-71.16250610351564	432.4171142578126	-309.1517028808594	-47.10878372192384	71.69451904296876	-334.2656860351563	-19.23324584960938	100.0519256591797	-247.6153869628907	-67.33177947998048	11.47747802734375	-285.0121765136719	111.5519332885742	79.54349517822267	-255.5973052978516	108.3131561279297	92.85641479492189	-310.2959594726563	77.25975799560548	59.5136184692383	-354.2240905761719	-305.3676147460938	854.4237060546877	-33.43626785278321	-374.1850585937501	454.7628173828126	-84.56267547607423	-380.2544860839844	448.9184570312501	-213.0717163085938	-397.7685852050782	394.9632568359376	-85.33137512207033	-344.2978210449219	382.8910827636719	-145.2797088623047	-526.5509643554689	75.19900512695314	-131.6768035888672	-492.4032592773439	86.7499465942383	-218.8328094482422	-570.8431396484376	26.90216636657716	-183.3211822509766	-379.3608093261719	14.54559135437012	-188.3911590576172	-372.6585998535157	29.63894844055176	-129.377685546875	-423.3135986328126	15.38837623596192	-82.07286071777345	-323.2237243652344	1490.50244140625	-200.7233276367188	-411.0775451660157	1213.115966796875	-206.3298339843751	-190.4948883056641	1201.911987304688	-217.1367340087891	-214.9989776611329	1396.2197265625	-211.9962005615235	-422.4322204589845	1245.396606445313	-308.8793640136719	-369.8830871582032	1399.485717773438	-338.2788391113282	-325.6501159667969	1387.8818359375	-401.192352294922	-278.7352600097657	1387.829467773438	-406.0879821777345	-371.3847656250001	1066.219482421875	-475.6756286621095	-403.6083068847657	1050.086547851563	-398.251678466797	-411.2691955566407	1047.981201171875	-447.9551391601564	-308.4659423828126	804.875183105469	-438.3792114257814	-344.8865966796876	813.472106933594	-510.9171447753907	-296.6757507324219	715.7473144531251	-449.7869567871095	-368.4828491210938	739.7725219726564	-517.4019775390626	-409.1580200195314	1242.08203125	-99.78670501708987	-358.8439636230469	1397.81591796875	-76.25914001464845	-299.4238586425782	1393.673950195313	-18.62376594543457	-254.9350738525391	1382.488159179688	-7.869981765747072	-254.9311981201172	1045.547119140625	61.36463928222658	-294.3383789062501	1025.384887695313	-13.01565074920655	-294.0042114257813	1009.587829589844	29.0000343322754	-73.68515777587892	873.3128051757815	-7.127165317535402	-109.4350204467774	838.0488891601565	54.40427398681642	-10.42304611206055	803.301452636719	-16.7791862487793	-75.84070587158205	759.6190795898439	46.55806350708009	
3	0.02	-194.8242340087891	935.4587402343752	-324.3926391601563	-389.9349975585939	964.1983642578127	-271.8830261230469	-393.6075439453126	967.2471313476565	-166.8696746826172	-201.1384887695313	936.7989501953127	-97.49082183837893	-284.2664489746094	857.5708007812502	-405.5787963867189	-129.5998229980469	469.2041320800782	-367.0170898437501	-128.6636962890625	459.2303161621095	-234.9570770263672	-118.4297943115235	408.973358154297	-367.6412353515626	-57.84858703613283	431.7247619628907	-309.4629821777344	-28.89147758483887	71.48250579833986	-334.5632019042969	-1.114265322685242	100.1950378417969	-247.9920959472657	-48.78039932250978	11.55950927734375	-285.1304016113282	129.8501892089844	80.71253967285158	-256.0826721191407	126.4145278930664	93.76840209960939	-310.8508911132813	95.51533508300783	60.08345031738283	-354.5204162597657	-294.7234497070313	852.764587402344	-33.89665603637696	-366.5791931152344	454.0562133789064	-85.35812377929689	-371.7493896484376	448.2489624023439	-213.8843994140626	-391.0700988769532	394.5842895507814	-86.10700988769533	-337.5697631835938	381.5018920898438	-145.8636779785157	-525.7020263671876	76.91540527343751	-131.8963165283203	-491.2337951660157	88.02852630615236	-219.1397247314454	-570.7087402343751	29.18946647644044	-183.5516052246094	-379.0109252929688	14.77518272399903	-188.1664123535157	-372.4217224121094	29.71668815612794	-129.2321166992188	-423.3079833984376	15.48705768585205	-82.2113723754883	-311.4086608886719	1488.736450195313	-202.1537170410157	-399.4022216796876	1211.417724609375	-207.8096923828126	-178.6726684570313	1200.037475585938	-217.6456756591797	-202.9877319335938	1394.489013671875	-213.2193298339844	-410.3050842285157	1243.197875976563	-310.1253051757813	-357.7696838378907	1397.36474609375	-339.6307678222657	-313.4960021972657	1385.637817382813	-402.4288940429689	-266.6732177734376	1385.616333007813	-407.2874450683595	-361.2871398925782	1064.505615234375	-476.3560180664064	-393.2902832031251	1048.638427734375	-398.8144531250001	-401.2032470703126	1046.652465820313	-448.4535217285157	-301.0736083984376	802.562438964844	-439.6352844238282	-337.5585327148438	811.6821289062502	-512.1108398437501	-290.6777038574219	713.1082153320314	-450.9860229492189	-362.2242736816407	738.3280029296876	-518.5658569335939	-397.7536926269532	1240.407958984375	-101.2276992797852	-347.3326110839844	1396.218139648438	-77.56921386718751	-287.9396057128907	1392.00390625	-19.78969383239746	-243.4493408203126	1380.847045898438	-8.969282150268556	-242.1152343750001	1044.099853515625	61.00039672851564	-281.5576782226563	1023.488830566406	-13.28681087493897	-281.0021057128907	1007.671936035156	28.75765800476075	-59.095516204834	874.1467285156252	-8.405450820922853	-93.97654724121095	838.248229980469	53.26782226562501	5.287772655487061	805.3933715820315	-18.04395866394043	-59.44506835937501	760.5054931640626	45.13202667236329	
4	0.03	-181.7899017333985	933.8308105468752	-324.6410827636719	-377.3942871093751	962.2224121093752	-273.3686218261719	-381.7456359863282	965.2178955078127	-168.5045776367188	-189.566879272461	935.4278564453127	-97.34182739257815	-270.9416809082032	856.0043945312502	-406.335662841797	-116.2392349243164	468.0598449707032	-367.4393005371094	-115.315544128418	458.0357666015626	-235.4067993164063	-104.9188003540039	407.8111572265626	-368.0299377441407	-44.42878723144532	430.9175109863282	-309.9297485351563	-13.69503593444825	71.15965270996095	-334.8122253417969	14.19579696655274	99.96533966064456	-248.2752990722657	-33.88503646850587	11.90541934967041	-285.1432189941407	145.0276641845703	80.22641754150392	-256.4265136718751	141.5069885253907	93.00836181640626	-311.2724304199219	110.4872283935547	59.31821823120119	-354.7043457031251	-283.8813171386719	851.2351684570315	-34.4251937866211	-358.6246643066407	453.4773864746095	-86.15489196777345	-362.8890686035157	447.6523742675782	-214.6737670898438	-384.0342407226564	394.3414306640626	-86.85335540771486	-330.4832153320313	380.1937255859376	-146.3969116210938	-524.7508544921876	78.95105743408205	-131.9515533447266	-489.9939880371095	89.62269592285158	-219.3018035888672	-570.6055297851564	31.92247772216798	-183.6052398681641	-378.6649169921876	14.9744234085083	-187.9273681640625	-372.1763000488282	29.7795524597168	-129.0740814208985	-423.3160705566407	15.47314453125	-82.32318115234376	-299.5136413574219	1487.121215820313	-203.6627502441407	-387.6460571289064	1209.871704101563	-209.3474578857422	-166.773193359375	1198.318237304688	-218.2690582275391	-190.9393463134766	1392.90087890625	-214.4901580810547	-398.0973510742189	1241.1416015625	-311.4766540527344	-345.5745849609376	1395.398559570313	-341.0996704101563	-301.2365722656251	1383.531982421875	-403.7792053222657	-254.4855957031251	1383.539428710938	-408.5875244140626	-350.7723388671876	1062.839111328125	-477.0820617675782	-382.5924682617188	1047.22216796875	-399.4337158203126	-390.7246093750001	1045.357177734375	-449.0150756835939	-293.1519165039063	800.3584594726565	-440.8855895996095	-329.6832580566407	809.981384277344	-513.3104858398439	-284.0590820312501	710.6221313476564	-452.218963623047	-355.3550720214844	736.9633178710939	-519.7500610351564	-386.2959594726564	1238.847412109375	-102.8272705078125	-335.7700805664063	1394.751953125	-78.99428558349611	-276.4032287597657	1390.432861328125	-21.05693435668946	-231.9232330322266	1379.319091796875	-10.1337890625	-229.5322723388672	1042.7421875	60.50630569458009	-268.9745178222657	1021.726867675781	-13.71313571929932	-268.2201538085938	1005.897827148438	28.35066604614259	-44.92881393432618	874.7947387695315	-9.665740966796877	-79.01914978027345	838.3994750976565	52.14177703857423	20.5215129852295	807.3210449218752	-19.1878776550293	-43.65364074707032	761.2840576171876	43.74489974975587	
